<?xml version="1.0" encoding="UTF-8"?>
<svg xmlns="http://www.w3.org/2000/svg" width="2983" height="715" viewBox="0 0 2983 715" fill="none">
  <path fill-rule="evenodd" clip-rule="evenodd" d="M2.63872 562.694L323.005 7.84024C325.872 3.1323 331.035 0 336.939 0C342.71 0 347.779 2.94246 350.683 7.46057L411.051 112.003L392.998 141.846L135.865 587.429H17.313C16.8574 587.505 16.4018 587.429 15.9462 587.429C7.13782 587.429 0 580.292 0 571.483C0 568.237 0.968162 565.237 2.63872 562.694Z" fill="#4FC1F4"></path>
  <path fill-rule="evenodd" clip-rule="evenodd" d="M2.63872 562.694L323.005 7.84024C325.872 3.1323 331.035 0 336.939 0C342.71 0 347.779 2.94246 350.683 7.46057L411.051 112.003L392.998 141.846L264.441 364.638L135.865 587.429H17.313C16.8574 587.505 16.4018 587.429 15.9462 587.429C7.13782 587.429 0 580.292 0 571.483C0 568.237 0.968162 565.237 2.63872 562.694Z" fill="url(#paint0_linear_162_4)"></path>
  <path fill-rule="evenodd" clip-rule="evenodd" d="M336.921 0H474.684C486.113 0 496.629 6.05578 502.306 15.9462C563.224 121.438 905.915 714.999 905.915 714.999H777.207C765.797 714.999 755.262 708.868 749.585 698.996C719.288 646.506 624.636 482.45 624.636 482.45H317.842C317.842 482.45 362.492 405.016 382.272 370.826C388.006 360.936 398.465 354.88 409.894 354.88H551.036L350.57 7.32768C347.627 2.94246 342.654 0 336.921 0Z" fill="#0099F0"></path>
  <path fill-rule="evenodd" clip-rule="evenodd" d="M545.549 587.43C556.959 587.43 567.495 593.486 573.171 603.376C592.932 637.566 637.639 715 637.639 715H98.8851C87.457 715 76.9401 708.868 71.264 699.054C51.4832 664.807 2.33472 579.799 2.33472 579.799C4.02425 582.589 6.64399 584.867 9.73831 586.177C11.6556 586.994 13.7818 587.43 15.9649 587.43H545.549Z" fill="#4FC1F4"></path>
  <path fill-rule="evenodd" clip-rule="evenodd" d="M545.549 587.43C556.959 587.43 567.495 593.486 573.171 603.376C592.932 637.566 637.639 715 637.639 715H98.8851C87.457 715 76.9401 708.868 71.264 699.054C51.4832 664.807 2.33472 579.799 2.33472 579.799C4.02425 582.589 6.64399 584.867 9.73831 586.177C11.6556 586.994 13.7818 587.43 15.9649 587.43H545.549Z" fill="url(#paint1_linear_162_4)"></path>
  <path d="M1474.95 171.744H1436.98V541.925H1474.95V171.744Z" fill="black"></path>
  <path d="M1782.48 541.925H1727.43L1545.19 171.744H1588.85L1755.91 513.26L1924.86 171.744H1966.62L1782.48 541.925Z" fill="black"></path>
  <path d="M1979.91 541.925H1938.15L2129.88 171.744H2173.54L2365.28 541.925H2323.51L2272.26 445.109H2118.49L2135.58 409.04H2257.07L2152.21 209.712L1979.91 541.925Z" fill="#0099F0"></path>
  <path d="M2604.47 207.813V171.744H2788.24C2816.05 171.744 2839.91 173.111 2859.75 177.439C2879.58 181.787 2895.83 187.691 2908.53 196.423C2921.16 205.231 2932.72 219.887 2938.59 233.024C2944.47 246.103 2948.08 261.461 2948.08 279.002C2948.08 306.243 2941.55 328.113 2927.2 344.514C2912.84 360.897 2888.85 374.509 2856.96 380.564L2982.25 541.925H2934.79L2818.32 385.88C2818.32 385.88 2812.48 386.26 2804.18 386.26H2642.44V541.925H2604.47V348.292L2739.07 348.368L2751.94 348.292C2781.21 348.292 2805.97 348.045 2826.18 346.394C2846.4 344.666 2862.8 342.142 2875.37 336.902C2887.99 331.682 2895.02 326.328 2900.62 316.836C2906.18 307.382 2908.21 294.758 2908.21 279.002C2908.21 263.378 2906.1 250.754 2900.62 241.13C2895.13 231.486 2888.32 226.398 2875.94 221.102C2863.51 215.805 2847.24 213.47 2827.08 211.61C2806.99 209.769 2782.24 207.813 2753.04 207.813H2604.47Z" fill="#0099F0"></path>
  <path d="M2486.77 171.744H2448.81V541.925H2486.77V171.744Z" fill="#0099F0"></path>
  <path d="M1055.41 543.256V172.43H1095.28V505.289H1362.17V543.256H1055.41Z" fill="black"></path>
  <defs>
    <linearGradient id="paint0_linear_162_4" x1="79.6738" y1="596.921" x2="373.921" y2="74.8723" gradientUnits="userSpaceOnUse">
      <stop stop-color="white" stop-opacity="0"></stop>
      <stop offset="1" stop-color="#0099F0" stop-opacity="0.6"></stop>
    </linearGradient>
    <linearGradient id="paint1_linear_162_4" x1="2.33652" y1="647.398" x2="637.646" y2="647.398" gradientUnits="userSpaceOnUse">
      <stop stop-color="white" stop-opacity="0.3"></stop>
      <stop offset="1" stop-color="#4FC1F4" stop-opacity="0"></stop>
    </linearGradient>
  </defs>
</svg>
